# xmcd
#
# Track frame offsets: 
#        150
#        11080
#        25132
#        38367
#        55175
#        67325
#        82055
#        95240
#        105560
#        116157
#        128855
#        142230
#
# Disc length: 2112 seconds
#
# Revision: 1
# Processed by: cddbd v1.5.2PL0 Copyright (c) Steve Scherf et al.
# Submitted via: ExactAudioCopy v1.1
#
DISCID=ae083e0c
DTITLE=Various Artist - I've Got The Blues
DYEAR=2017
DGENRE=Blues
TTITLE0=Little Walter - Just Your Fool
TTITLE1=Howlin' Wolf - Commit A Crime
TTITLE2=Little Walter - Blue And Lonesome
TTITLE3=Magic Sam Blues Band - All Of Your Love
TTITLE4=Little Walter - I Got To Go
TTITLE5=Little Johny Taylor - Everybody Knows About My Good Thing (Pt.
TTITLE5=1)
TTITLE6=Eddie Taylor - Ride ‘Em On Down
TTITLE7=Little Walter - Hate To See You Go
TTITLE8=Lightnin' Slim - Hoo Doo Blues
TTITLE9=Jimmy Reed - Little Rain
TTITLE10=Howlin' Wolf - Just Like I Treat You
TTITLE11=Otis Rush - I Can’t Quit You Baby (Take 2)
EXTD=
EXTT0=
EXTT1=
EXTT2=
EXTT3=
EXTT4=
EXTT5=
EXTT6=
EXTT7=
EXTT8=
EXTT9=
EXTT10=
EXTT11=
PLAYORDER=
